HIERARCHY
ROOT Hips
{
	OFFSET 0.000000 87.230942 0.000000
	CHANNELS 6 Xposition Yposition Zposition Xrotation Yrotation Zrotation
	JOINT Pelvis
	{
		OFFSET 0.000000 0.000000 0.000000
		CHANNELS 3 Xrotation Yrotation Zrotation
		JOINT LeftUpLeg
		{
			OFFSET 12.017000 -9.376404 -2.439400
			CHANNELS 3 Xrotation Yrotation Zrotation
			JOINT LeftLeg
			{
				OFFSET -0.007312 -32.846973 2.110600
				CHANNELS 3 Xrotation Yrotation Zrotation
				JOINT LeftFoot
				{
					OFFSET 0.007312 -32.065170 -0.570400
					CHANNELS 3 Xrotation Yrotation Zrotation
					JOINT LeftToeBase
					{
						OFFSET 0.728300 -11.045900 13.180700
						CHANNELS 3 Xrotation Yrotation Zrotation
						End Site
						{
							OFFSET 0.000000 17.212589 0.000000
						}
					}
				}
				JOINT LeftPantLeg
				{
					OFFSET 0.002788 -16.709013 -3.143600
					CHANNELS 3 Xrotation Yrotation Zrotation
					End Site
					{
						OFFSET -0.605125 24.528742 0.000000
					}
				}
			}
			JOINT Left_Butt
			{
				OFFSET -6.630234 1.326584 -3.183700
				CHANNELS 3 Xrotation Yrotation Zrotation
				End Site
				{
					OFFSET -0.498041 20.188049 0.000000
				}
			}
		}
		JOINT RightUpLeg
		{
			OFFSET -11.717000 -9.376404 -2.439400
			CHANNELS 3 Xrotation Yrotation Zrotation
			JOINT RightLeg
			{
				OFFSET -0.003241 -32.846912 2.110600
				CHANNELS 3 Xrotation Yrotation Zrotation
				JOINT RightFoot
				{
					OFFSET 0.003241 -32.065136 -0.570500
					CHANNELS 3 Xrotation Yrotation Zrotation
					JOINT RightToeBase
					{
						OFFSET -0.728300 -11.045901 13.180700
						CHANNELS 3 Xrotation Yrotation Zrotation
						End Site
						{
							OFFSET 0.000000 17.212593 0.000000
						}
					}
				}
				JOINT RightPantLeg
				{
					OFFSET 0.008142 -16.708982 -3.143700
					CHANNELS 3 Xrotation Yrotation Zrotation
					End Site
					{
						OFFSET 0.605088 24.528715 0.000000
					}
				}
			}
			JOINT Right_Butt
			{
				OFFSET 6.630732 1.326584 -3.183700
				CHANNELS 3 Xrotation Yrotation Zrotation
				End Site
				{
					OFFSET 0.498015 20.188240 0.000000
				}
			}
		}
	}
	JOINT Spine
	{
		OFFSET -0.062400 7.848404 3.918300
		CHANNELS 3 Xrotation Yrotation Zrotation
		JOINT Spine1
		{
			OFFSET -0.072800 11.422302 0.713400
			CHANNELS 3 Xrotation Yrotation Zrotation
			JOINT Spine2
			{
				OFFSET -0.083200 13.054001 -1.931600
				CHANNELS 3 Xrotation Yrotation Zrotation
				JOINT Neck
				{
					OFFSET -0.092200 14.121796 -5.138800
					CHANNELS 3 Xrotation Yrotation Zrotation
					JOINT Head
					{
						OFFSET 0.000200 10.447403 -0.842000
						CHANNELS 3 Xrotation Yrotation Zrotation
						JOINT Visor
						{
							OFFSET 0.457100 25.671204 16.550400
							CHANNELS 3 Xrotation Yrotation Zrotation
							End Site
							{
								OFFSET 0.000000 26.061493 0.000000
							}
						}
						JOINT HairMidA
						{
							OFFSET 0.459400 31.585403 8.437400
							CHANNELS 3 Xrotation Yrotation Zrotation
							End Site
							{
								OFFSET 0.000000 26.061493 0.000000
							}
						}
						JOINT HairMidB
						{
							OFFSET 0.464000 33.309204 -8.389700
							CHANNELS 3 Xrotation Yrotation Zrotation
							End Site
							{
								OFFSET 0.000000 26.061493 0.000000
							}
						}
						JOINT HairMidC
						{
							OFFSET 0.466600 27.991196 -17.375099
							CHANNELS 3 Xrotation Yrotation Zrotation
							End Site
							{
								OFFSET 0.000000 26.061493 0.000000
							}
						}
						JOINT HairMidD
						{
							OFFSET 0.467700 17.888092 -21.169500
							CHANNELS 3 Xrotation Yrotation Zrotation
							End Site
							{
								OFFSET 0.000000 26.061493 0.000000
							}
						}
						JOINT HairMidE
						{
							OFFSET 5.325700 3.514603 -14.369699
							CHANNELS 3 Xrotation Yrotation Zrotation
							End Site
							{
								OFFSET 0.000000 26.061493 0.000000
							}
						}
						JOINT HairMidF
						{
							OFFSET -4.394100 3.514603 -14.372400
							CHANNELS 3 Xrotation Yrotation Zrotation
							End Site
							{
								OFFSET 0.000000 26.061493 0.000000
							}
						}
						JOINT HairLeftA
						{
							OFFSET 15.319900 25.746506 2.623300
							CHANNELS 3 Xrotation Yrotation Zrotation
							End Site
							{
								OFFSET 0.000000 26.061493 0.000000
							}
						}
						JOINT HairLeftB
						{
							OFFSET 12.619500 29.289398 -8.731499
							CHANNELS 3 Xrotation Yrotation Zrotation
							End Site
							{
								OFFSET 0.000000 26.061493 0.000000
							}
						}
						JOINT HairLeftC
						{
							OFFSET 15.714800 15.959900 2.909800
							CHANNELS 3 Xrotation Yrotation Zrotation
							End Site
							{
								OFFSET 0.000000 26.061493 0.000000
							}
						}
						JOINT HairLeftD
						{
							OFFSET 16.101700 18.437408 -7.553200
							CHANNELS 3 Xrotation Yrotation Zrotation
							End Site
							{
								OFFSET 0.000000 26.061493 0.000000
							}
						}
						JOINT HairLeftE
						{
							OFFSET 9.731900 17.915009 -18.316799
							CHANNELS 3 Xrotation Yrotation Zrotation
							End Site
							{
								OFFSET 0.000000 26.061493 0.000000
							}
						}
						JOINT HairLeftF
						{
							OFFSET 11.204300 4.953598 -9.668100
							CHANNELS 3 Xrotation Yrotation Zrotation
							End Site
							{
								OFFSET 0.000000 26.061493 0.000000
							}
						}
						JOINT HairRightA
						{
							OFFSET -14.397900 25.746307 2.615100
							CHANNELS 3 Xrotation Yrotation Zrotation
							End Site
							{
								OFFSET 0.000000 26.061493 0.000000
							}
						}
						JOINT HairRightB
						{
							OFFSET -11.691200 29.289200 -8.738199
							CHANNELS 3 Xrotation Yrotation Zrotation
							End Site
							{
								OFFSET 0.000000 26.061493 0.000000
							}
						}
						JOINT HairRightC
						{
							OFFSET -14.792900 15.959702 2.901400
							CHANNELS 3 Xrotation Yrotation Zrotation
							End Site
							{
								OFFSET 0.000000 26.061493 0.000000
							}
						}
						JOINT HairRightD
						{
							OFFSET -15.174000 18.437195 -7.561900
							CHANNELS 3 Xrotation Yrotation Zrotation
							End Site
							{
								OFFSET 0.000000 26.061493 0.000000
							}
						}
						JOINT HairRightE
						{
							OFFSET -8.798200 17.914902 -18.322001
							CHANNELS 3 Xrotation Yrotation Zrotation
							End Site
							{
								OFFSET 0.000000 26.061493 0.000000
							}
						}
						JOINT HairRightF
						{
							OFFSET -10.275200 4.953506 -9.674099
							CHANNELS 3 Xrotation Yrotation Zrotation
							End Site
							{
								OFFSET 0.000000 26.061493 0.000000
							}
						}
					}
				}
				JOINT LeftShoulder
				{
					OFFSET 5.133500 7.341202 -1.867600
					CHANNELS 3 Xrotation Yrotation Zrotation
					JOINT LeftArm
					{
						OFFSET 8.072663 0.936867 -2.176600
						CHANNELS 3 Xrotation Yrotation Zrotation
						JOINT LeftForeArm
						{
							OFFSET 31.271999 0.000000 0.000000
							CHANNELS 3 Xrotation Yrotation Zrotation
							JOINT LeftHand
							{
								OFFSET 31.771030 0.000000 0.000000
								CHANNELS 3 Xrotation Yrotation Zrotation
								JOINT LeftHandThumb1
								{
									OFFSET 2.886520 -2.557846 4.416640
									CHANNELS 3 Xrotation Yrotation Zrotation
									JOINT LeftHandThumb2
									{
										OFFSET 2.371025 -1.368912 1.368911
										CHANNELS 3 Xrotation Yrotation Zrotation
										JOINT LeftHandThumb3
										{
											OFFSET 2.243378 -1.295212 1.295213
											CHANNELS 3 Xrotation Yrotation Zrotation
											End Site
											{
												OFFSET -0.332611 2.876945 0.020015
											}
										}
									}
								}
								JOINT LeftHandIndex1
								{
									OFFSET 8.568985 -0.641945 3.119977
									CHANNELS 3 Xrotation Yrotation Zrotation
									JOINT LeftHandIndex2
									{
										OFFSET 3.348503 0.000000 0.000000
										CHANNELS 3 Xrotation Yrotation Zrotation
										JOINT LeftHandIndex3
										{
											OFFSET 3.314552 0.000000 0.000000
											CHANNELS 3 Xrotation Yrotation Zrotation
											End Site
											{
												OFFSET -1.032898 3.075485 0.678796
											}
										}
									}
								}
								JOINT LeftHandMiddle1
								{
									OFFSET 8.124603 0.000000 0.000000
									CHANNELS 3 Xrotation Yrotation Zrotation
									JOINT LeftHandMiddle2
									{
										OFFSET 4.166275 0.000000 0.000000
										CHANNELS 3 Xrotation Yrotation Zrotation
										JOINT LeftHandMiddle3
										{
											OFFSET 3.018135 0.000000 0.000000
											CHANNELS 3 Xrotation Yrotation Zrotation
											End Site
											{
												OFFSET -1.032700 2.767982 0.617226
											}
										}
									}
								}
								JOINT LeftHandRing1
								{
									OFFSET 8.571686 -0.031357 -2.884048
									CHANNELS 3 Xrotation Yrotation Zrotation
									JOINT LeftHandRing2
									{
										OFFSET 3.671181 0.000000 0.000000
										CHANNELS 3 Xrotation Yrotation Zrotation
										JOINT LeftHandRing3
										{
											OFFSET 2.728851 0.000000 0.000000
											CHANNELS 3 Xrotation Yrotation Zrotation
											End Site
											{
												OFFSET -0.815796 2.539223 0.577389
											}
										}
									}
								}
								JOINT LeftHandPinky1
								{
									OFFSET 7.854515 -0.675232 -5.213020
									CHANNELS 3 Xrotation Yrotation Zrotation
									JOINT LeftHandPinky2
									{
										OFFSET 3.068596 0.000000 0.000000
										CHANNELS 3 Xrotation Yrotation Zrotation
										JOINT LeftHandPinky3
										{
											OFFSET 2.396042 0.000000 0.000000
											CHANNELS 3 Xrotation Yrotation Zrotation
											End Site
											{
												OFFSET -0.524597 2.267998 0.567429
											}
										}
									}
								}
							}
							JOINT LeftSleeve
							{
								OFFSET 19.684509 -0.200119 0.476146
								CHANNELS 3 Xrotation Yrotation Zrotation
								End Site
								{
									OFFSET -0.031017 25.731133 -0.002868
								}
							}
						}
					}
				}
				JOINT RightShoulder
				{
					OFFSET -4.395900 7.341202 -1.870200
					CHANNELS 3 Xrotation Yrotation Zrotation
					JOINT RightArm
					{
						OFFSET -8.071453 0.936867 -2.181100
						CHANNELS 3 Xrotation Yrotation Zrotation
						JOINT RightForeArm
						{
							OFFSET -31.272011 0.000000 0.000000
							CHANNELS 3 Xrotation Yrotation Zrotation
							JOINT RightHand
							{
								OFFSET -31.771019 0.000000 0.000000
								CHANNELS 3 Xrotation Yrotation Zrotation
								JOINT RightHandThumb1
								{
									OFFSET -2.886520 -2.557808 4.416626
									CHANNELS 3 Xrotation Yrotation Zrotation
									JOINT RightHandThumb2
									{
										OFFSET -2.371056 -1.368927 1.368928
										CHANNELS 3 Xrotation Yrotation Zrotation
										JOINT RightHandThumb3
										{
											OFFSET -2.243362 -1.295204 1.295206
											CHANNELS 3 Xrotation Yrotation Zrotation
											End Site
											{
												OFFSET 0.332642 2.876938 0.020047
											}
										}
									}
								}
								JOINT RightHandIndex1
								{
									OFFSET -8.568993 -0.641953 3.120017
									CHANNELS 3 Xrotation Yrotation Zrotation
									JOINT RightHandIndex2
									{
										OFFSET -3.348518 0.000000 0.000000
										CHANNELS 3 Xrotation Yrotation Zrotation
										JOINT RightHandIndex3
										{
											OFFSET -3.314552 0.000000 0.000000
											CHANNELS 3 Xrotation Yrotation Zrotation
											End Site
											{
												OFFSET 1.032898 3.075478 0.678804
											}
										}
									}
								}
								JOINT RightHandMiddle1
								{
									OFFSET -8.124588 0.000000 0.000000
									CHANNELS 3 Xrotation Yrotation Zrotation
									JOINT RightHandMiddle2
									{
										OFFSET -4.166275 0.000000 0.000000
										CHANNELS 3 Xrotation Yrotation Zrotation
										JOINT RightHandMiddle3
										{
											OFFSET -3.018097 0.000000 0.000000
											CHANNELS 3 Xrotation Yrotation Zrotation
											End Site
											{
												OFFSET 1.032700 2.767937 0.617197
											}
										}
									}
								}
								JOINT RightHandRing1
								{
									OFFSET -8.571747 -0.031349 -2.884061
									CHANNELS 3 Xrotation Yrotation Zrotation
									JOINT RightHandRing2
									{
										OFFSET -3.671204 0.000000 0.000000
										CHANNELS 3 Xrotation Yrotation Zrotation
										JOINT RightHandRing3
										{
											OFFSET -2.728874 0.000000 0.000000
											CHANNELS 3 Xrotation Yrotation Zrotation
											End Site
											{
												OFFSET 0.815804 2.539261 0.577413
											}
										}
									}
								}
								JOINT RightHandPinky1
								{
									OFFSET -7.854561 -0.675247 -5.212970
									CHANNELS 3 Xrotation Yrotation Zrotation
									JOINT RightHandPinky2
									{
										OFFSET -3.068550 0.000000 0.000000
										CHANNELS 3 Xrotation Yrotation Zrotation
										JOINT RightHandPinky3
										{
											OFFSET -2.395981 0.000000 0.000000
											CHANNELS 3 Xrotation Yrotation Zrotation
											End Site
											{
												OFFSET 0.524605 2.267952 0.567413
											}
										}
									}
								}
							}
							JOINT RightSleeve
							{
								OFFSET -19.684753 -0.200165 0.476065
								CHANNELS 3 Xrotation Yrotation Zrotation
								End Site
								{
									OFFSET 0.031342 25.731255 -0.002917
								}
							}
						}
					}
				}
				JOINT Hood
				{
					OFFSET 0.369700 14.447800 -5.317800
					CHANNELS 3 Xrotation Yrotation Zrotation
					JOINT Hood1
					{
						OFFSET 0.001700 -5.553802 -5.895100
						CHANNELS 3 Xrotation Yrotation Zrotation
						JOINT Hood2
						{
							OFFSET -0.000200 -8.380501 0.763600
							CHANNELS 3 Xrotation Yrotation Zrotation
							End Site
							{
								OFFSET 0.000000 8.415215 0.000000
							}
						}
					}
				}
				JOINT Left_Breast
				{
					OFFSET 5.682500 3.120102 3.188800
					CHANNELS 3 Xrotation Yrotation Zrotation
					End Site
					{
						OFFSET 0.000000 10.528564 0.000000
					}
				}
				JOINT Right_Breast
				{
					OFFSET -4.947600 3.120102 3.185900
					CHANNELS 3 Xrotation Yrotation Zrotation
					End Site
					{
						OFFSET 0.000000 10.528564 0.000000
					}
				}
				JOINT Whistle
				{
					OFFSET 0.368200 11.471298 0.095400
					CHANNELS 3 Xrotation Yrotation Zrotation
					JOINT Whistle1
					{
						OFFSET -0.002000 -6.349899 7.479800
						CHANNELS 3 Xrotation Yrotation Zrotation
						JOINT Whistle2
						{
							OFFSET -0.001300 -8.217598 4.717600
							CHANNELS 3 Xrotation Yrotation Zrotation
							End Site
							{
								OFFSET 0.000000 9.475479 0.000000
							}
						}
					}
				}
			}
		}
		JOINT Belly
		{
			OFFSET 0.212400 1.593002 3.163700
			CHANNELS 3 Xrotation Yrotation Zrotation
			End Site
			{
				OFFSET 0.000000 7.496635 0.000000
			}
		}
	}
	JOINT FitGrandmaFacialAnim_Joint
	{
		OFFSET 1.150000 -86.211197 -1.220100
		CHANNELS 3 Xrotation Yrotation Zrotation
		End Site
		{
			OFFSET 0.000000 31.666618 0.000000
		}
	}
}
MOTION
Frames: 4
Frame Time: 0.016667
3.160450 56.103920 103.348923 26.558292 -56.056940 32.878833 0.000001 0.000001 -0.000001 -54.474857 -42.829265 35.182335 83.568860 -0.385452 -41.658690 -17.061925 -0.980137 -24.844507 -0.000000 -0.000002 0.000000 0.000003 0.000000 0.000001 -0.000002 -0.000000 -0.000000 -79.372945 25.375775 -22.457244 104.457266 10.770682 0.673359 -34.700131 -6.172966 15.408789 -0.000000 0.000000 0.000000 0.000002 0.000000 0.000001 0.000001 -0.000002 0.000000 36.076246 -1.667898 -12.457409 -1.957391 5.375154 -0.991203 2.116127 5.078865 -0.821984 -12.375872 22.130624 -4.641761 -6.246899 18.672306 -15.900095 0.000000 0.000000 0.000000 0.000000 0.000000 0.000000 0.000000 0.000000 0.000000 0.000000 0.000000 0.000000 0.000000 0.000000 0.000000 0.000000 0.000000 0.000000 0.000000 0.000000 0.000000 0.000000 0.000000 0.000000 0.000000 0.000000 0.000000 0.000000 0.000000 0.000000 0.000000 0.000000 0.000000 0.000000 0.000000 0.000000 0.000000 0.000000 0.000000 0.000000 0.000000 0.000000 0.000000 0.000000 0.000000 0.000000 0.000000 0.000000 0.000000 0.000000 0.000000 0.000000 0.000000 0.000000 0.000000 0.000000 0.000000 5.941498 -18.519088 -1.957341 -27.184710 20.945571 -31.616351 -81.078444 -81.172605 -70.320083 19.572884 -8.968055 11.330313 -2.637057 -7.745154 8.357715 4.850449 25.883366 0.310220 0.000002 -0.000001 0.000000 13.403497 -1.931343 -0.362583 -0.144266 0.314217 -46.537299 0.000002 -0.000001 0.000002 8.600812 -0.764881 -14.454873 0.337739 0.741019 -48.772929 0.000001 -0.000003 -0.000002 6.268066 2.785902 -30.963092 0.134957 0.420952 -52.428139 -0.000001 -0.000001 0.000000 -5.507723 7.394423 -31.738783 0.325622 0.344451 -72.129243 -0.000004 0.000005 0.000002 0.000001 -0.000002 -0.000003 0.012704 27.801537 18.707825 -54.993907 -1.387940 14.818751 -31.712865 58.823030 27.684017 29.626697 11.680910 -21.865396 4.362882 -2.376072 -10.417855 6.382017 -22.873390 7.534681 -0.000000 0.000002 0.000000 12.580749 5.223926 8.328364 -0.320488 -0.269497 55.178547 -0.000001 0.000000 0.000003 6.735571 -0.416802 21.668220 0.630574 -0.710892 59.162757 0.000000 -0.000003 -0.000000 3.077463 -6.824899 32.208703 0.532230 -0.321429 64.382196 0.000001 -0.000002 -0.000001 -7.813625 -10.789265 40.442971 0.564464 -0.208582 85.786916 -0.000003 -0.000002 0.000001 -0.000001 -0.000002 0.000001 0.000001 0.000000 -0.000000 0.000001 0.000000 -0.000000 0.000001 0.000000 -0.000000 0.000001 0.000000 -0.000000 0.000001 0.000000 -0.000000 0.000001 0.000000 0.000000 0.000004 0.000001 0.000002 0.000004 0.000001 0.000002 -0.000003 -0.000001 -0.000002 0.000001 0.000001 -0.000001 
3.388199 56.235878 104.151466 28.260557 -56.521731 34.125162 0.000000 0.000000 0.000001 -54.543036 -42.717342 35.819848 84.603866 -0.783077 -42.481724 -18.031641 -1.129558 -24.097679 0.000000 0.000001 -0.000000 -0.000000 0.000001 -0.000001 0.000001 0.000002 -0.000001 -79.521604 25.683999 -22.565210 103.218625 10.874409 0.687150 -34.006955 -5.819937 16.228535 -0.000000 0.000001 0.000000 -0.000003 0.000002 -0.000003 0.000000 -0.000001 -0.000000 35.757765 -2.008938 -13.936536 -2.211919 5.602698 -0.808066 1.905226 5.369621 -0.299751 -12.094915 22.484167 -4.602854 -6.896203 18.777338 -15.089623 0.000000 0.000000 0.000001 0.000000 0.000000 0.000001 0.000000 0.000000 0.000001 0.000000 0.000000 0.000001 0.000000 0.000000 0.000001 0.000000 0.000000 0.000001 0.000000 0.000000 0.000001 0.000000 0.000000 0.000001 0.000000 0.000000 0.000001 0.000000 0.000000 0.000001 0.000000 0.000000 0.000001 0.000000 0.000000 0.000001 0.000000 0.000000 0.000001 0.000000 0.000000 0.000001 0.000000 0.000000 0.000001 0.000000 0.000000 0.000001 0.000000 0.000000 0.000001 0.000000 0.000000 0.000001 0.000000 0.000000 0.000001 6.664360 -18.263929 -2.232492 -27.495669 17.707796 -32.135115 -65.949424 -80.866585 -55.485383 19.983564 -7.423068 10.194815 -2.565586 -7.754375 8.363820 4.988659 26.393936 0.484764 -0.000000 -0.000000 0.000001 13.409938 -1.900498 -2.024957 -0.142137 0.315761 -49.012317 0.000005 0.000001 -0.000003 8.587733 -0.735838 -16.027768 0.347272 0.750560 -51.229404 0.000000 -0.000002 0.000002 6.254691 2.818111 -32.426036 0.146172 0.429363 -54.763559 -0.000002 -0.000000 -0.000002 -5.551668 7.431818 -32.962418 0.336770 0.347389 -74.252489 0.000004 -0.000000 -0.000001 0.000000 -0.000000 -0.000001 0.392892 28.446671 18.972630 -54.816882 -0.739636 15.725244 -32.159509 59.955687 28.371954 30.216545 9.118552 -21.036115 4.934221 -2.758356 -10.624081 6.709287 -23.370554 7.689437 -0.000001 -0.000000 -0.000000 12.835075 4.880022 10.435490 -0.342449 -0.295566 58.867051 -0.000003 -0.000005 0.000004 6.540483 -0.366038 24.090053 0.670351 -0.689407 62.625738 0.000004 -0.000002 -0.000002 2.533742 -6.923166 34.344397 0.559772 -0.307381 67.256367 0.000002 0.000005 0.000002 -8.870813 -11.299491 42.195802 0.584053 -0.186623 88.957900 -0.000001 0.000001 -0.000004 -0.000001 -0.000001 -0.000001 -0.000000 -0.000002 0.000003 -0.000000 -0.000002 0.000003 -0.000000 -0.000002 0.000003 -0.000000 -0.000002 0.000003 -0.000000 -0.000002 0.000003 -0.000000 -0.000002 0.000002 0.000002 0.000002 -0.000002 0.000002 0.000002 -0.000002 0.000003 0.000002 -0.000001 0.000000 0.000000 0.000001 
3.489038 56.489082 104.893204 29.318700 -56.776388 35.095821 0.000000 0.000001 -0.000000 -54.497072 -42.697049 35.689569 85.374120 -0.782505 -43.244130 -18.918984 -1.152448 -23.562904 0.000000 -0.000002 0.000000 -0.000000 0.000002 0.000001 0.000001 -0.000000 0.000002 -79.191269 25.762384 -23.089145 102.095393 10.847272 0.435690 -33.612672 -5.426822 16.951179 0.000000 -0.000000 0.000000 -0.000004 -0.000001 0.000001 0.000002 -0.000002 0.000000 35.088120 -2.316468 -15.437740 -2.135782 5.671945 -0.623122 1.911763 5.457647 0.250410 -12.116943 22.696529 -4.358119 -7.303202 18.909087 -14.670551 0.000001 -0.000000 -0.000001 0.000001 -0.000000 -0.000001 0.000001 -0.000000 -0.000001 0.000001 -0.000000 -0.000001 0.000001 -0.000000 -0.000001 0.000001 -0.000000 -0.000001 0.000001 -0.000000 -0.000001 0.000001 -0.000000 -0.000001 0.000001 -0.000000 -0.000001 0.000001 -0.000000 -0.000001 0.000001 -0.000000 -0.000001 0.000001 -0.000000 -0.000001 0.000001 -0.000000 -0.000001 0.000001 -0.000000 -0.000001 0.000001 -0.000000 -0.000001 0.000001 -0.000000 -0.000001 0.000001 -0.000000 -0.000001 0.000001 -0.000000 -0.000001 0.000001 -0.000000 -0.000001 7.124628 -18.651618 -2.187863 -27.932339 15.768882 -32.151958 -52.503842 -79.963620 -42.362814 19.874063 -6.198297 8.772592 -2.494170 -7.763586 8.369867 5.113604 26.867024 0.645992 0.000001 -0.000001 0.000001 13.421739 -1.871645 -3.652797 -0.140184 0.317257 -51.493923 0.000003 0.000000 0.000001 8.575924 -0.708599 -17.530012 0.357460 0.759462 -53.634317 -0.000001 -0.000001 -0.000003 6.241570 2.849684 -33.783004 0.157191 0.436995 -56.993356 0.000003 0.000001 0.000001 -5.595011 7.468749 -34.051164 0.347424 0.349648 -76.219768 -0.000001 -0.000001 0.000002 0.000002 0.000001 -0.000002 0.481412 28.460039 19.320845 -54.296240 -0.269328 17.138946 -33.555866 61.774765 30.127244 31.259539 6.241255 -19.766158 5.449431 -3.079948 -10.807719 7.007124 -23.827948 7.829289 0.000001 -0.000000 -0.000000 13.115574 4.577892 12.470372 -0.362160 -0.324264 62.492713 -0.000001 -0.000002 0.000003 6.340838 -0.331170 26.374431 0.707226 -0.664503 65.968870 0.000000 -0.000000 0.000002 2.011727 -7.073387 36.304774 0.584426 -0.291950 69.957516 0.000003 0.000003 -0.000002 -9.826573 -11.857217 43.719990 0.600169 -0.164793 91.846401 -0.000001 0.000000 -0.000002 -0.000002 -0.000001 -0.000003 -0.000000 -0.000001 0.000001 -0.000000 -0.000001 0.000001 -0.000000 -0.000001 0.000001 -0.000000 -0.000001 0.000001 -0.000000 -0.000001 0.000001 -0.000000 -0.000001 -0.000002 0.000002 0.000000 -0.000001 0.000002 0.000000 -0.000001 -0.000000 0.000002 -0.000003 0.000000 0.000001 -0.000000 
3.633322 56.810760 105.612701 29.783026 -56.626978 35.293336 0.000001 -0.000001 -0.000000 -55.029321 -42.858877 34.954678 85.904498 -0.641640 -43.595960 -19.482435 -1.145134 -22.998297 -0.000000 -0.000001 0.000000 0.000000 -0.000001 0.000001 0.000002 -0.000000 -0.000003 -78.528953 25.208814 -24.022054 100.928975 9.957779 0.047332 -33.287405 -4.417784 18.017394 0.000000 0.000000 -0.000000 0.000000 -0.000001 -0.000001 0.000000 -0.000002 0.000001 34.198231 -2.482871 -16.003132 -1.873219 5.586116 -0.555361 2.077608 5.368879 0.484099 -12.370042 22.770474 -4.044475 -7.971464 19.199325 -14.250019 0.000001 0.000000 0.000000 0.000001 0.000000 0.000000 0.000001 0.000000 0.000000 0.000001 0.000000 0.000000 0.000001 0.000000 0.000000 0.000001 0.000000 0.000000 0.000001 0.000000 0.000000 0.000001 0.000000 0.000000 0.000001 0.000000 0.000000 0.000001 0.000000 0.000000 0.000001 0.000000 0.000000 0.000001 0.000000 0.000000 0.000001 0.000000 0.000000 0.000001 0.000000 0.000000 0.000001 0.000000 0.000000 0.000001 0.000000 0.000000 0.000001 0.000000 0.000000 0.000001 0.000000 0.000000 0.000001 0.000000 0.000000 6.965545 -19.294378 -2.102307 -28.134867 15.072522 -32.000536 -44.720875 -79.216930 -34.965958 19.735955 -4.859247 6.786327 -2.423066 -7.772814 8.375884 5.223512 27.295340 0.791257 -0.000001 0.000002 0.000001 13.438331 -1.845259 -5.224443 -0.138570 0.318775 -53.948860 0.000003 0.000000 0.000001 8.565225 -0.683855 -18.940733 0.367947 0.767635 -55.955423 -0.000004 -0.000002 0.000002 6.228802 2.879359 -35.013534 0.167735 0.443809 -59.086382 0.000000 -0.000002 -0.000002 -5.635518 7.502934 -34.986196 0.357171 0.351354 -78.001252 0.000002 0.000002 -0.000001 0.000001 -0.000001 -0.000001 0.326751 28.032097 19.689721 -54.046081 0.106965 18.102738 -34.543187 63.125592 31.386471 32.050512 4.260135 -17.576676 5.901726 -3.333573 -10.969726 7.271092 -24.239527 7.950924 -0.000001 0.000001 -0.000001 13.414723 4.320674 14.409764 -0.379301 -0.354861 66.014892 -0.000001 -0.000001 -0.000001 6.140125 -0.310627 28.493893 0.740358 -0.636867 69.154422 0.000000 -0.000001 -0.000005 1.519325 -7.265428 38.063029 0.606025 -0.275888 72.451846 -0.000001 -0.000004 -0.000002 -10.670393 -12.435100 44.989602 0.613045 -0.143991 94.411588 0.000001 -0.000001 -0.000000 0.000001 -0.000000 -0.000002 -0.000001 0.000002 0.000000 -0.000001 0.000002 0.000000 -0.000001 0.000002 0.000000 -0.000001 0.000002 0.000000 -0.000001 0.000002 0.000000 -0.000001 0.000002 0.000001 -0.000000 -0.000000 0.000002 -0.000000 -0.000000 0.000002 -0.000001 0.000001 -0.000002 0.000001 -0.000001 -0.000000 
